/* XPM */
static char *result[] = {
/* columns rows colors chars-per-pixel */
"128 128 86 1 ",
"  c black",
". c #070000",
"X c #0B0000",
"o c #0F0000",
"O c #1C0101",
"+ c #1B0700",
"@ c gray12",
"# c #230B00",
"$ c #2B1700",
"% c #2B230F",
"& c #2E220E",
"* c #3B2F17",
"= c #232323",
"- c #2F2F2F",
"; c #373737",
": c gray23",
"> c #441B0D",
", c #50180C",
"< c #7F0A0A",
"1 c #60130B",
"2 c #6A100B",
"3 c #43331B",
"4 c #4B3B1B",
"5 c #573F1F",
"6 c #472424",
"7 c #673E3E",
"8 c #5F4323",
"9 c #6F4B27",
"0 c #774F2B",
"q c #434343",
"w c #4B4B4B",
"e c gray34",
"r c #5B5B5B",
"t c #754C4C",
"y c #676767",
"u c gray45",
"i c #7B7B7B",
"p c gray50",
"a c #800A0A",
"s c #820A0A",
"d c #8F0F0F",
"f c #843232",
"g c #F60303",
"h c #F60606",
"j c #FB0000",
"k c red",
"l c #FC0202",
"z c #F30B0B",
"x c #FC0C0C",
"c c #C33A3A",
"v c #83532F",
"b c #875333",
"n c #8B5B33",
"m c #935F37",
"M c #9F633B",
"N c #A3673F",
"B c #AB6B43",
"V c #B77347",
"C c #BF7B4B",
"Z c #C3774B",
"A c #CB7F4F",
"S c #D38353",
"D c #DF8B57",
"F c #EB8F5B",
"G c #F3975F",
"H c #FF9F63",
"J c #EBA377",
"K c #FFA773",
"L c gray56",
"P c #9B9B9B",
"I c gray67",
"U c #B7B7B7",
"Y c #BBBBBB",
"T c #C49393",
"R c #FFB383",
"E c #EFBB9B",
"W c #FFBB93",
"Q c #FFBF9F",
"! c #FFC7A7",
"~ c #FFCFB3",
"^ c #C3C3C3",
"/ c LightGray",
"( c #DFDFDF",
") c #EFEFEF",
"_ c white",
"` c None",
/* pixels */
"````````````````````````````````````````````````````````````````````````````````````````````````````````````````````````````````",
"````````````````````````````````````````````````````````````````````````````````````````````````````````````````````````````````",
"````````````````````````````````````````````````````````````````````````````````````````````````````````````````````````````````",
"````````````````````````````````````````````````````````````````````````````````````````````````````````````````````````````````",
"````````````````````````````````````````````````````````````````````````````````````````````````````````````````````````````````",
"````````````````````````````````````````````````````````````````````````````````````````````````````````````````````````````````",
"````````````````````````````````````````````````````````````````````````````````````````````````````````````````````````````````",
"````````````````````````````````````````````````````````````````````````````````````````````````````````````````````````````````",
"````````````````````````````````````````````````````````````````````````````````````````````````````````````````````````````````",
"````````````````````````````````````````````````````````````````````````````````````````````````````````````````````````````````",
"````````````````````````````````````````````````````````````````````````````````````````````````````````````````````````````````",
"````````````````````````````````````````````````````````````````````````````````````````````````````````````````````````````````",
"````````````````````````````````````````````````````````````````````````````````````````````````````````````````````````````````",
"````````````````````````````````````````````````````````````````````````````````````````````````````````````````````````````````",
"````````````````````````````````````````````````````````````````````````````````````````````````````````````````````````````````",
"````````````````````````````````````````````````````````````````````````````````````````````````````````````````````````````````",
"````````````````````````````````````````````````````````````````````````````````````````````````````````````````````````````````",
"````````````````````````````````````````````````````````````````````````````````````````````````````````````````````````````````",
"````````````````````````````````````````````````````````````````````````````````````````````````````````````````````````````````",
"````````````````````````````````````````````````````````````````````````````````````````````````````````````````````````````````",
"````````````````````````````````````````````````````````````````````````````````````````````````````````````````````````````````",
"````````````````````````````````````````````````````````````````````````````````````````````````````````````````````````````````",
"````````````````````````````````````````````````````````````````````````````````````````````````````````````````````````````````",
"````````````````````````````````````````````````````````````````````````````````````````````````````````````````````````````````",
"````````````````````````````````````````````````````````````````````````````````````````````````````````````````````````````````",
"````````````````````````````````````````````````````````````````````````````````````````````````````````````````````````````````",
"````````````````````````````````````````````````````````````````````````````````````````````````````````````````````````````````",
"````````````````````````````````````````````````````````````````````````````````````````````````````````````````````````````````",
"````````````````````````````````````````````````````````````````````````````````````````````````````````````````````````````````",
"````````````````````````````````````````````````````````````````````````````````````````````````````````````````````````````````",
"````````````````````````````````````````````````````````````````````````````````````````````````````````````````````````````````",
"````````````````````````````````````````````````````````````````````````````````````````````````````````````````````````````````",
"````````````````````````````````````````````````````````````````````````````````````````````````````````````````````````````````",
"````````````````````````````````````````````````````````````````````````````````````````````````````````````````````````````````",
"````````````````````````````````````````````````````````````````````````````````````````````````````````````````````````````````",
"````````````````````````````````````````````````````````````````````````````````````````````````````````````````````````````````",
"````````````````````````````````````````````````````````````````````````````````````````````````````````````````````````````````",
"````````````````````````````````````````````````````````````````````````````````````````````````````````````````````````````````",
"````````````````````````````````````````````````````````````````````````````````````````````````````````````````````````````````",
"````````````````````````````````````````````````````````````````````````````````````````````````````````````````````````````````",
"````````````````````````````````````````````````````````````````````````````````````````````````````````````````````````````````",
"````````````````````````````````````````````````````````````````````````````````````````````````````````````````````````````````",
"`````````````````````````````````````````````````````````````````p``````````````````````````````````````````````````````````````",
"`````````````````````````````````````````````````````````````````;``````````````````````````````````````````````````````````````",
"```````````````````````````````````````````````````````````````=4@XX````````````````````````````````````````````````````````````",
"`````````````````````````````````````````````````````````````=wuy%=%%@``````````````````````````````````````````````````````````",
"````````````````````````````````````````````````````````````=qyLy%=:;%@`````````````````````````````````````````````````````````",
"````````````````````````````````````````````````````````````;rw:;;::--%`````````````````````````````````````````````````````````",
"```````````````````````````````````````````````````````````=;q*%@@@%%%%@````````````````````````````````````````````````````````",
"```````````````````````````````````````````````````````````=q;=    @o%%@````````````````````````````````````````````````````````",
"```````````````````````````````````````````````````````````--=:;q:@%%  %````````````````````````````````````````````````````````",
"```````````````````````````````````````````````````````````;%;uerw=%-%o ````````````````````````````````````````````````````````",
"```````````````````````````````````````````````````````````=-wLuew-%-;% ````````````````````````````````````````````````````````",
"```````````````````````````````````````````````````````````@wrUirw;%-:%o````````````````````````````````````````````````````````",
"```````````````````````````````````````````````````````````%fyPU5wp8%:,o````````````````````````````````````````````````````````",
"```````````````````````````````````````````````````````````;giu  :  %-<O````````````````````````````````````````````````````````",
"````````````````````````````````````````````````````````;;;-j7-      %a>---`````````````````````````````````````````````````````",
"```````````````````````````````````````````````````````;%@=;lt=      ;a&;=@-````````````````````````````````````````````````````",
"```````````````````````````````````````````````````````;=;@hxIPUyw==%%s1-w%-````````````````````````````````````````````````````",
"`````````````````````````````````````````````````````;ru(;dkcPLuw;@@@@2s-r:-````````````````````````````````````````````````````",
"`````````````````````````````````````````````````````334-3:zT/Ppe:==@ @6qy=y;```````````````````````````````````````````````````",
"````````````````````````````````````````````````````` @@-@wL(Pq        @:w=-@:``````````````````````````````````````````````````",
"`````````````````````````````````````````````````````@@qP=wL/qUre:-%%o  =:@@@-``````````````````````````````````````````````````",
"`````````````````````````````````````````````````````==-y;qPU u:;-%o@=  X%= @%``````````````````````````````````````````````````",
"````````````````````````````````````````````````````=q;@q=;pU r%%o   @  X%%@@%``````````````````````````````````````````````````",
"````````````````````````````````````````````````````=@=@ =qyL@;      @  XX%@@o``````````````````````````````````````````````````",
"````````````````````````````````````````````````````vv4@@-eyy-          #%   CHHHHHD````````````````````````````````````````````",
"```````````````````````````````````````````````````vmm=;==Pue-         ##%   BHHRRRKD```````````````````````````````````````````",
"``````````````````````````````````````````````````vmNN3@@@^Purq;;-     #%-@  nASFRRRH```````````````````````````````````````````",
"`````````````````````````````````````````````````vmNC==r-@/pe:-==%    ##%;   5nNARQQR```````````````````````````````````````````",
"````````````````````````````````````````````````mNVCA-3@@+Iyq;==o    #$%%-   38bFRQQRD``````````````````````````````````````````",
"```````````````````````````````````````````````mNVASD=wpw@wew:-==X #$%%%-=   %49FRQQRD``````````````````````````````````````````",
"```````````````````````````````````````````````mNVASD*@=;+*ryw883*%%%%%-%@   %49FRQQRK``````````````````````````````````````````",
"```````````````````````````````````````````````NBVCADM3%--+=4wueww:;**%o@X  @%0BGG!!QKD`````````````````````````````````````````",
"``````````````````````````````````````````````mmNBDKRHVM qrw-              %%0CDH!!~!RK`````````````````````````````````````````",
"``````````````````````````````````````````````mNNDRKKKKDM=ruI==; =       nV00CSRWRKHWWKD````````````````````````````````````````",
"`````````````````````````````````````````````mmNDRRKHHRRGM@=P=wP@: .    nAVn0CKRRKKHKRKD````````````````````````````````````````",
"`````````````````````````````````````````````mmBHRKGFFHKRHm5@%;w w     nAVNvCRRRKGGFDFGHA```````````````````````````````````````",
"`````````````````````````````````````````````mBDKGFSSSFGKKHm54%*@   +nVVBvvARRKGGDDACCDGA```````````````````````````````````````",
"````````````````````````````````````````````MCDSGFSAAADDGKRKDm5%%%9vVVBMvNDQQKGGFSSAVVCDA```````````````````````````````````````",
"````````````````````````````````````````````CASVVSVNCADDFHKRQQGBbbVBBmmvASQRKGGFSSSSAVVAB```````````````````````````````````````",
"````````````````````````````````````````````DGDmnSNmBCCFFHRRGSGKBbbbbbAGSRRKGDSSCAASAVVBM```````````````````````````````````````",
"````````````````````````````````````````````nVVn9n5vvBVCFHRGCCSDKGSCNNAGRKGFSSACVVCAVVBMn```````````````````````````````````````",
"```````````````````````````````````````````nM9994%50vvmVDHHCVVASGHKHGDDDDSSAAACVVVCVBBmnvv``````````````````````````````````````",
"```````````````````````````````````````````nNnv4%*%0MvvMSGFCVVCADGGHKKHGDACCVVVVVCVBBMmvvv``````````````````````````````````````",
"``````````````````````````````````````````nnNMmv843*%MvmSFDSCVVVASDGGKKKHDSAVVVVVVBNMmvvv9``````````````````````````````````````",
"``````````````````````````````````````````nNVCCB0843*%mmCDFFDCVVVCASDDDDDDDSACCCCBNMmnvnv8``````````````````````````````````````",
"``````````````````````````````````````````nNCASCM08553bmVFHGFDVVVVVVVAAAAAASSAACVNMmnvv098``````````````````````````````````````",
"`````````````````````````````````````````nNSDGGFAM09883MBFKHGFCVBBBBVVVVVCCAADDFAMmnvvn98```````````````````````````````````````",
"`````````````````````````````````````````nSDGGHKGSZMv98bNSHKHGACBMMMNNBVVVVCAAGHGANvvnv98```````````````````````````````````````",
"`````````````````````````````````````````NDGKKKKKGSZM084MAGRKHSZMmmmNNBBVVVVVCAFDSANnn988```````````````````````````````````````",
"````````````````````````````````````````nSKKRRKKKHFSZm94bCGRRHSCMnnmNNBBVCVVCCCADZVCNv988```````````````````````````````````````",
"````````````````````````````````````````CGRRRRRRKHFDZBm58VFRRKSVnvbnmNBBVAZCASDDDJSNMn88````````````````````````````````````````",
"```````````````````````````````````````NGWWWWWRRRRKHSZBb4bZHKHDVnvvvbnMNCCCCASDDGHJRSN98````````````````````````````````````````",
"``````````````````````````````````````(())))))/RRRRKDSBb88BSHHDVnv000bNCADDDFFFGGGHKRSv5````````````````````````````````````````",
"````````````````````````````````````)(////))))())/WRJDAb94bBADSVmn99mBVCDFGGGHHHHHHHKES4````````````````````````````````````````",
"```````````````````````````````````_(((/^/())(//YY/^ISNm9980VCAVBv90NASDFHKKKKKKKKKKKKES````````````````````````````````````````",
"``````````````````````````````````)_)(/^^/()(//^YYIUIUPm985*nMVVBv98vVFJJJKKKKJJ^())))))//``````````````````````````````````````",
"`````````````````````````````````__)(/^^^/()//^YYYIPLpppp5**35nMMb9*5mCSDFJJJ^()^^^/())^^/()````````````````````````````````````",
"````````````````````````````````)_)(/^YY^/)(/^YYYYIPLiuyyye*```8859539nZZSS//UUUYYY^/()/^^/()```````````````````````````````````",
"```````````````````````````````_)((/^^Y^/()/^YYYYIPLpiuywwew`````859*59nN^IPLPIUYYYY^/()/^^/()``````````````````````````````````",
"``````````````````````````````U))(/^YYY^/)(/YYYYYIPLpiuyw:::``````55538pLpuiiLPIUYYYY^/()/^^/()`````````````````````````````````",
"``````````````````````````````U((/^YYY^/()/^YYYYIPLiiiyrw-=-```````59*pyeyuiiiLPIUYYYY^/()/^^/()````````````````````````````````",
"`````````````````````````````PUU^^YY^///)(/YYYYYIPLiiuyew==-````````5yw:wyuuiiiLPIUYYYY^/()/^^/()```````````````````````````````",
"`````````````````````````````PIU^YYYYY^//(/YYYYIPLpiiuyw:==-````````:w--wyyuiiipLPIUYYYY^/()/^^/()``````````````````````````````",
"````````````````````````````uppyyyuLLPIYY^^YYYYIPLpiiyyw:==-````````:---:rryuiiiLLPIYUYYY^/((/^//()`````````````````````````````",
"```````````````````````````upyyewwwweyuLPIIUYYIPLiiiuyew-=-`````````:@--:eryuiiipLLPIUYYYY^/(^^UU^(`````````````````````````````",
"`````````````````````````uppuyyyw::::weyiLPIUIPLpiiiyrw:==-`````````:@@-:weyyuiiipLLPIUUYIPLLLLLLLYY````````````````````````````",
"````````````````````````uLpiLLLLiyw:wwweyuuiLPPpiiiuyrw:==-`````````:@@-:weryuiiiipLLPPLLiuyyyyyyuLIY```````````````````````````",
"```````````````````````uLiuLLPPPPLiyeyupyyyuuiiiiiuuye--==-`````````:@@-:weryuuiiiipLLpuyyyyyyyuipII/Y``````````````````````````",
"```````````````````````LLupLPIYYIPLiypLPPPiyryuuuiuyr-ye:=-`````````:@=-wweryyuuiiiuuuyyyyuiiiuupPI///Y`````````````````````````",
"``````````````````````uPiyypLPIYYIPLuupPYIIPe@rryuuew-ew:-``````````::ey-wweryyyyyyyyipiLLLppuyrrreyP//Y````````````````````````",
"``````````````````````PLyeweupPPIYYPLpupIYY/ue@yrrew:-::=-``````````::ee-:wwerrrrryppI/))(YPLpuyrrwwwypPY```````````````````````",
"``````````````````````PLewwweyipLPIYILLpPYY(Pu@@eeww:-===-``````````:@::--::wrew:yiI/_)Ypyyeerrrrrrew:ypP```````````````````````",
"``````````````````````Lyww::yiiuyuuPIILypY)/Iiw-:ww:--==@-``````````:@@==--:ww:-wiI/)Ypyyeerrryuiiyeww:yL```````````````````````",
"`````````````````````YLyw:::wyyuuuyuLLpeypPYUPy-@@::--==@-``````````:@@==--::@@-yPUYPpyewwwryuuuyyewwweyLY``````````````````````",
"````````````````````YLuew:::weeryuuuyuu:weyiPPuw-@----==@-``````````:@@==----@-wuPPiyew::wyuuuyreeeeeeeeuLY`````````````````````",
"```````````````````_ILpueew:::weeyupppyw:weyiLLr--@-:-=@@:```````````:@@=-:-@--rLLiyew:wypppuyeeeeeeeeeupLI_````````````````````",
"``````````````````_/IPLppuyee::weeyuLLLpy::eyiLuw--@-:-@:`````````````:@-:-@--wuLiye::ypLLLuyeeeeeeeyuppLPI/_```````````````````",
"`````````````````_((^IPLLpiuyeewweeypLPPPpr:eyiir:--@-::```````````````::-@--:riiye:rpPPPLpyeeeeeeyuipLLPI^((_``````````````````",
"`````````````````)((///(^PLiyyreeweeyuLIIIIpeyuir::--@:`````````````````:@--::riuyepIIIILuyeeeeeryyiLP^(///(()``````````````````",
"````````````````Y)^PyiLP^/^ILiyyreeeeyuLIUUYpeypr::--@:`````````````````:@--::rpyepYUUILuyeeeeryyiLI^/^PLiyP^)Y`````````````````",
"````````````````Y(IwwyupPPI^UPiuyryeeepppL^^YIeye::--@:`````````````````:@--::eyeIY^^ILuyeeeeryuiPU^IPPpuywwI(Y`````````````````",
"````````````````^(P:weyyuiPIIYPiuyruyeeyupppL^Iyw::--@:`````````````````:@--::wyI^^^ILuyeeeeryuiPYIIPiuyyew:P(^`````````````````",
"````````````````^(L::weyyupPIIYPiyrypueeyuuy:pPPr::--@:`````````````````:@--::rI/U^YLuyeeeerryiPYIIPpuyyew::L(^`````````````````",
"```````````````Y(IpwyuuyeyupPIYIpuyypPpeeupue:yuyr::-@:`````````````````:@-::rI^UIYPpueeeerryupIYIPpuyeyuuywpI(Y````````````````",
"``````````````Y)(PupLLLpywyuPPIILiyyuPPpeyuLy::eyyr:-@:`````````````````:@-:rpU/LPILuyeeeeeryiLIIPPuywypLLLpuP()Y```````````````",
"`````````````Y)(ILLIUUUPpyupPIIPLiuyuP^PeyupPe-:eyy:-@:`````````````````:@-:yP/UpLPpuyeeweryuiLPIIPpuypPUUUILLI()Y``````````````"
};
