/* XPM */
static char *result[] = {
/* columns rows colors chars-per-pixel */
"128 128 82 1 ",
"  c black",
". c #070000",
"X c #0A0000",
"o c #0B0000",
"O c #0F0000",
"+ c #1B0700",
"@ c gray12",
"# c #2B230F",
"$ c #3B2F17",
"% c #232323",
"& c #2F2F2F",
"* c #373737",
"= c gray23",
"- c #411C0D",
"; c #52170C",
": c #750D0A",
"> c #7C0B0B",
", c #7E0A0A",
"< c #7F0A0A",
"1 c #7C0C0C",
"2 c #641010",
"3 c #43331B",
"4 c #4B3B1B",
"5 c #573F1F",
"6 c #5F4323",
"7 c #6F4B27",
"8 c #774F2B",
"9 c #434343",
"0 c #4B4B4B",
"q c gray34",
"w c #5B5B5B",
"e c #676767",
"r c gray45",
"t c #7B7B7B",
"y c gray50",
"u c #800A0A",
"i c #810A0A",
"p c #B02B2B",
"a c #BB3737",
"s c #EB0808",
"d c #FA0101",
"f c #F90404",
"g c #F50909",
"h c #F70A0A",
"j c #FB0F0F",
"k c #FC0F0F",
"l c #F81111",
"z c #CC3131",
"x c #83532F",
"c c #875333",
"v c #8B5B33",
"b c #935F37",
"n c #9F633B",
"m c #A3673F",
"M c #934848",
"N c #AB6B43",
"B c #B77347",
"V c #BF7B4B",
"C c #C84444",
"Z c #C3774B",
"A c #CB7F4F",
"S c #D38353",
"D c #DF8B57",
"F c #EB8F5B",
"G c #F3975F",
"H c #FF9F63",
"J c #EBA377",
"K c #FFA773",
"L c gray56",
"P c #9B9B9B",
"I c gray67",
"U c #B7B7B7",
"Y c #FFB383",
"T c #EFBB9B",
"R c #FFBF9F",
"E c #FFC7A7",
"W c #FFCFB3",
"Q c #C3C3C3",
"! c LightGray",
"~ c #DFDFDF",
"^ c #FFDBC7",
"/ c None",
/* pixels */
"////////////////////////////////////////////////////////////////////////////////////////////////////////////////////////////////",
"////////////////////////////////////////////////////////////////////////////////////////////////////////////////////////////////",
"////////////////////////////////////////////////////////////////////////////////////////////////////////////////////////////////",
"////////////////////////////////////////////////////////////////////////////////////////////////////////////////////////////////",
"////////////////////////////////////////////////////////////////////////////////////////////////////////////////////////////////",
"////////////////////////////////////////////////////////////////////////////////////////////////////////////////////////////////",
"////////////////////////////////////////////////////////////////////////////////////////////////////////////////////////////////",
"////////////////////////////////////////////////////////////////////////////////////////////////////////////////////////////////",
"////////////////////////////////////////////////////////////////////////////////////////////////////////////////////////////////",
"////////////////////////////////////////////////////////////////////////////////////////////////////////////////////////////////",
"////////////////////////////////////////////////////////////////////////////////////////////////////////////////////////////////",
"////////////////////////////////////////////////////////////////////////////////////////////////////////////////////////////////",
"////////////////////////////////////////////////////////////////////////////////////////////////////////////////////////////////",
"////////////////////////////////////////////////////////////////////////////////////////////////////////////////////////////////",
"////////////////////////////////////////////////////////////////////////////////////////////////////////////////////////////////",
"////////////////////////////////////////////////////////////////////////////////////////////////////////////////////////////////",
"////////////////////////////////////////////////////////////////////////////////////////////////////////////////////////////////",
"////////////////////////////////////////////////////////////////////////////////////////////////////////////////////////////////",
"////////////////////////////////////////////////////////////////////////////////////////////////////////////////////////////////",
"////////////////////////////////////////////////////////////////////////////////////////////////////////////////////////////////",
"////////////////////////////////////////////////////////////////////////////////////////////////////////////////////////////////",
"////////////////////////////////////////////////////////////////////////////////////////////////////////////////////////////////",
"////////////////////////////////////////////////////////////////////////////////////////////////////////////////////////////////",
"////////////////////////////////////////////////////////////////////////////////////////////////////////////////////////////////",
"////////////////////////////////////////////////////////////////////////////////////////////////////////////////////////////////",
"////////////////////////////////////////////////////////////////////////////////////////////////////////////////////////////////",
"////////////////////////////////////////////////////////////////////////////////////////////////////////////////////////////////",
"////////////////////////////////////////////////////////////////////////////////////////////////////////////////////////////////",
"////////////////////////////////////////////////////////////////////////////////////////////////////////////////////////////////",
"////////////////////////////////////////////////////////////////////////////////////////////////////////////////////////////////",
"////////////////////////////////////////////////////////////////////////////////////////////////////////////////////////////////",
"////////////////////////////////////////////////////////////////////////////////////////////////////////////////////////////////",
"////////////////////////////////////////////////////////////////////////////////////////////////////////////////////////////////",
"////////////////////////////////////////////////////////////////////////////////////////////////////////////////////////////////",
"////////////////////////////////////////////////////////////////////////////////////////////////////////////////////////////////",
"////////////////////////////////////////////////////////////////////////////////////////////////////////////////////////////////",
"////////////////////////////////////////////////////////////////////////////////////////////////////////////////////////////////",
"////////////////////////////////////////////////////////////////////////////////////////////////////////////////////////////////",
"////////////////////////////////////////////////////////////////////////////////////////////////////////////////////////////////",
"////////////////////////////////////////////////////////////////////////////////////////////////////////////////////////////////",
"////////////////////////////////////////////////////////////////////////////////////////////////////////////////////////////////",
"////////////////////////////////////////////////////////////////////////////////////////////////////////////////////////////////",
"////////////////////////////////////////////////////////////////////////////////////////////////////////////////////////////////",
"////////////////////////////////////////////////////////////////////////////////////////////////////////////////////////////////",
"////////////////////////////////////////////////////////////////////////////////////////////////////////////////////////////////",
"////////////////////////////////////////////////////////////////////////////////////////////////////////////////////////////////",
"////////////////////////////////////////////////////////////////////////////////////////////////////////////////////////////////",
"////////////////////////////////////////////////////////////////////////////////////////////////////////////////////////////////",
"////////////////////////////////////////////////////////////////////////////////////////////////////////////////////////////////",
"////////////////////////////////////////////////////////////////////////////////////////////////////////////////////////////////",
"////////////////////////////////////////////////////////////////////////////////////////////////////////////////////////////////",
"////////////////////////////////////////////////////////////////////////////////////////////////////////////////////////////////",
"////////////////////////////////////////////////////////////////////////////////////////////////////////////////////////////////",
"////////////////////////////////////////////////////////////////////////////////////////////////////////////////////////////////",
"////////////////////////////////////////////////////////////////////////////////////////////////////////////////////////////////",
"////////////////////////////////////////////////////////////////////////////////////////////////////////////////////////////////",
"////////////////////////////////////////////////////////////////////////////////////////////////////////////////////////////////",
"////////////////////////////////////////////////////////////////////////////////////////////////////////////////////////////////",
"////////////////////////////////////////////////////////////////////////////////////////////////////////////////////////////////",
"////////////////////////////////////////////////////////////////////////////////////////////////////////////////////////////////",
"////////////////////////////////////////////////////////////////////////////////////////////////////////////////////////////////",
"////////////////////////////////////////////////////////////////////////////////////////////////////////////////////////////////",
"////////////////////////////////////////////////////////////////////////////////////////////////////////////////////////////////",
"////////////////////////////////////////////////////////////////////////////////////////////////////////////////////////////////",
"////////////////////////////////////////////////////////////////////////////////////////////////////////////////////////////////",
"////////////////////////////////////////////////////////////////////////////////////////////////////////////////////////////////",
"////////////////////////////////////////////////////////////////////////////////////////////////////////////////////////////////",
"////////////////////////////////////////////////////////////////////////////////////////////////////////////////////////////////",
"////////////////////////////////////////////////////////////////////////////////////////////////////////////////////////////////",
"////////////////////////////////////////////////////////////////////////////////////////////////////////////////////////////////",
"////////////////////////////////////////////////////////////////////////////////////////////////////////////////////////////////",
"////////////////////////////////////////////////////////////////////////////////////////////////////////////////////////////////",
"//////////////////////////////////////////////////////////////////y*////////////////////////////////////////////////////////////",
"//////////////////////////////////////////////////////////////////* ////////////////////////////////////////////////////////////",
"////////////////////////////////////////////////////////////////@*@@@@//////////////////////////////////////////////////////////",
"//////////////////////////////////////////////////////////////@4r0#@%*&@////////////////////////////////////////////////////////",
"/////////////////////////////////////////////////////////////@9eLe#@%=*&@///////////////////////////////////////////////////////",
"/////////////////////////////////////////////////////////////*9&#@@@@#&&&///////////////////////////////////////////////////////",
"////////////////////////////////////////////////////////////*&@@      @#&@//////////////////////////////////////////////////////",
"////////////////////////////////////////////////////////////%@o %&*%%@  ##//////////////////////////////////////////////////////",
"////////////////////////////////////////////////////////////%  =*9=%@##  #//////////////////////////////////////////////////////",
"////////////////////////////////////////////////////////////  *rqw0&%#&#O //////////////////////////////////////////////////////",
"//////////////////////////////////////////////////////////// &0Lrq0*&#&*# //////////////////////////////////////////////////////",
"//////////////////////////////////////////////////////////// 0wUtw0**#&=#O//////////////////////////////////////////////////////",
"////////////////////////////////////////////////////////////#sePU50%y6#=:O//////////////////////////////////////////////////////",
"////////////////////////////////////////////////////////////*dtr  =%  #&<O//////////////////////////////////////////////////////",
"////////////////////////////////////////////////////////@@&=*fw%       *u-0=&%//////////////////////////////////////////////////",
"///////////////////////////////////////////////////////@&&=&Mhyw933&%@#&u;&=@@ /////////////////////////////////////////////////",
"///////////////////////////////////////////////////////@&&*&ajIPUe0=%%##1,&0#@ /////////////////////////////////////////////////",
"/////////////////////////////////////////////////////*wr~I*&pgPLr0*%@@@@<,&w=@ /////////////////////////////////////////////////",
"////////////////////////////////////////////////////*30qqr3=zl!Pyq=&%%@ >i9e%Pe*////////////////////////////////////////////////",
"////////////////////////////////////////////////////5 @@&@@0CkP9        X2=0%eq==///////////////////////////////////////////////",
"/////////////////////////////////////////////////////@@9P9%0L!9Uwq=*&##O  %=@%@@&///////////////////////////////////////////////",
"/////////////////////////////////////////////////////%%&e%*9PU r=*&##@@%  o#%@ @#///////////////////////////////////////////////",
"/////////////////////////////////////////////////////9*@9*%*yU w##O@   @  o##@@@#///////////////////////////////////////////////",
"//////////////////////////////////////////////////////@  0%0wr@*       .   Oo&  ////////////////////////////////////////////////",
"//////////////////////////////////////////////////////4@@9&qee&            # =  ////////////////////////////////////////////////",
"//////////////////////////////////////////////////////%*%*%Prq&           O% *  ////////////////////////////////////////////////",
"//////////////////////////////////////////////////////3@@%@QPrw9**&#      #&@&  ////////////////////////////////////////////////",
"/////////////////////////////////////////////////////c%w&=@!yq=&%%#      O#* #  DYYYKD//////////////////////////////////////////",
"///////////////////////////////////////////////////bm&3@@0+Ie9*%%O      O##& #  GYYYYKD/////////////////////////////////////////",
"/////////////////////////////////////////////////bmVV%0y0*@0q0=&%%oo O %##&% #  mmAYRYGA////////////////////////////////////////",
"///////////////////////////////////////////////bmBVAV$@%*&+$we0=====&%%##&#@ O  6cFYRRKD////////////////////////////////////////",
"//////////////////////////////////////////////bmBASDBv @&%&+%40rq00==*$$#O@o   @47FYRRYKA///////////////////////////////////////",
"/////////////////////////////////////////////bmNBVADDDc@ %9*&@                @##7nFEERKD///////////////////////////////////////",
"////////////////////////////////////////////bmbmNDKYYYDc@@%w0e@@% @@       77###VDKE^^EYK///////////////////////////////////////",
"////////////////////////////////////////////bnmmDYKHHYYGn@%&eP%0P@=* .   7nABv#VKYWRKHKRKD//////////////////////////////////////",
"///////////////////////////////////////////bbnnDYKGFFHKYHb5@#e *0 0%   7nABBmxVYYYKGGFDFGH//////////////////////////////////////",
"///////////////////////////////////////////bnmDKGFSSSFGKKHb543#3$@   5xBBNnxxAYYKGGDDAVVDGA/////////////////////////////////////",
"//////////////////////////////////////////nVDDSGFSAAADDGKYKDb55####7xBBNnxxmDRRKGGFSSABBVDA/////////////////////////////////////",
"/////////////////////////////////////////VVASGBBSBmVADDFHKYRRKGNcccBNNbbxAGSRYKGGFSSSSABBAN/////////////////////////////////////",
"/////////////////////////////////////////VDGDBbvSmbNVVFFHYYGSFGKGNcccccAGSDYYKGDSSVAASABBNn/////////////////////////////////////",
"/////////////////////////////////////////nVBBmv7v5xxNBVFHYGVVASDGKGSVmmAGYKKGFSSAVBBVABBNnv/////////////////////////////////////",
"//////////////////////////////////////////nNNv74#58xxbBDHHVBBVASDGHKHGDDDDDSSAAAVBBBVBNNbvx/////////////////////////////////////",
"/////////////////////////////////////////vmvx84#$#8nxxnSGFVBBBVASDGGHKKHGDSAVVBBBBBVBNNnbxxx////////////////////////////////////",
"/////////////////////////////////////////vmnbbx643$#nxbSFDSVBBBBVASDGGKKKHGDSABBBBBBNmnbxxx7////////////////////////////////////",
"////////////////////////////////////////vmBASVN8643$#bbVDFFDVBBBBBVASDDDDDDDDSAVVVVNmnbvxvx6////////////////////////////////////",
"////////////////////////////////////////vmBASSVn86553cbBFHGFDVBBBBBBBBAAAAAAASSAAVBmnbvxx876////////////////////////////////////",
"////////////////////////////////////////mBADGFFAn87663nNFKHGFDVBNNNNNBBBBBBVVAADFGAnbvxxv76/////////////////////////////////////",
"///////////////////////////////////////vmBAFHYKGSZnx76cmSHKHGDAVBNnnnmmNBBBBBVAAGKGAmxxvx76/////////////////////////////////////",
"///////////////////////////////////////mBADGHKKKGSZn864nAGYKHDSZNnbbbmmNNBBBBBBVAFDSAmvv766/////////////////////////////////////",
"///////////////////////////////////////mBAFHKKKKHFSZb74cVGYYHFSVmnvvbmmNNBVVBBVVVADZBVmx766/////////////////////////////////////",
"//////////////////////////////////////vBADGHKKKKHFDZNb56BFYYKFSBnvxcvbmNNBAAZVASDDDJSmnv66//////////////////////////////////////",
"//////////////////////////////////////mBADHKKKKKHFDZBm74mSYYKGSBnvxxcvbmNBVAAZSSDGHJJSNb67//////////////////////////////////////",
"//////////////////////////////////////BADGHKKKKHHFSZZNc4cZHKHGDBnvxxxcvnmNBVVAASDDGHJYSm7x//////////////////////////////////////",
"/////////////////////////////////////mBADGHHKHHHFDAZBNc46NSHHFDBbvx888cvnmNBVAAASDDGHKYSx5//////////////////////////////////////",
"/////////////////////////////////////BAAFGGHHHGFDSZZBZc$4cNADDSANbvx778cvnmNBBVAZSDDGHKTS4//////////////////////////////////////",
"////////////////////////////////////mBADFGFFFFFDSZZZBc$$$68BVAAABNbv8678cvnmNBBVAASDDGHKTS//////////////////////////////////////"
};
