/* XPM */
static char *_d400a08d944480ab0865df8faac11122KpBxYAXLEUs00kW[] = {
/* columns rows colors chars-per-pixel */
"60 60 8 1 ",
"  c #020202",
". c gray2",
"X c #090909",
"o c #222222",
"O c #505050",
"+ c gray33",
"@ c gray40",
"# c #686868",
/* pixels */
".X.XXXXX.XX.XX.XX.XX.XX.XX.XX.XX.XX.XX.XX.XX.XX.XX.XX.XX.XX.",
" .                                                         +",
"..                                                         O",
".                                                          O",
".                                                          O",
".                                                          O",
" .                                                         O",
" .                                                         O",
"..                                                         O",
".                                                          O",
".                                                          O",
".                                                          O",
" .                                                         O",
" .                                                         O",
"..                                                         O",
".                                                          O",
".                                                          O",
".                                                          O",
" .                                                         O",
" .                                                         O",
"..                                                         O",
".                                                          O",
".                                                          O",
".                                                          O",
" .                                                         O",
" .                                                         O",
"..                                                         O",
".                                                          O",
".                                                          O",
".                                                          O",
" .                                                         O",
" .                                                         O",
"..                                                         O",
".                                                          O",
".                                                          O",
".                                                          O",
" .                                                         O",
" .                                                         O",
"..                                                         O",
".                                                          O",
".                                                          O",
".                                                          O",
" .                                                         O",
" .                                                         O",
"..                                                         O",
".                                                          O",
".                                                          O",
".                                                          O",
" .                                                         O",
" .                                                         O",
"..                                                         O",
".                                                          O",
".                                                          O",
".                                                          O",
" .                                                         O",
" .                                                         O",
"..                                                         O",
".                                                          O",
"..                                                         +",
"X#@@@@@@@@@@@@@@@@@@@@@@@@@@@@@@@@@@@@@@@@@@@@@@@@@@@@@@@@@o"
};
